<svg xmlns="http://www.w3.org/2000/svg" width="17.873" height="35.746" viewBox="0 0 17.873 35.746">
  <path id="thermometer-three-quarters-light" d="M12.288,26.81A3.351,3.351,0,1,1,7.82,23.65l-.063-5.964a1.117,1.117,0,0,1,2.234,0l.063,5.964A3.352,3.352,0,0,1,12.288,26.81Zm3.351-5.91a8.936,8.936,0,0,1-6.7,14.847H8.873A8.936,8.936,0,0,1,2.234,20.9V6.7a6.7,6.7,0,1,1,13.4,0Zm0,5.91a7.15,7.15,0,0,0-2.234-5.065V6.7a4.468,4.468,0,1,0-8.936,0V21.744a7.143,7.143,0,0,0-2.234,5.03,6.724,6.724,0,0,0,6.654,6.737h.048A6.71,6.71,0,0,0,15.639,26.81Z" transform="translate(0 0)" fill="#fff"/>
</svg>
